Simulation
nRows=48
nColumns=15
endheader
time  TH_x TH_y TH_z SC_y  SC_z  SC_x  AC_y  AC_z  AC_x  GH_y  GH_z  GH_yy  EL_x  PS_y
0.0  0.000000  0.000000  0.000000  -34.93048325948602  3.348495732696718  8.221973692159304  69.28040107895335  -2.608198323783931  8.42895553372678  22.846904167552367  21.41419286316143  5.365423757971202  28.58490870797479  0.000000
0.015  0.000000  0.000000  0.000000  -33.4478699463428  10.06437513133297  7.630324036230424  71.88876614216132  -0.39883274374341265  5.176789391845204  22.73765103129115  22.90578887348024  5.72064577652331  26.719953287409297  0.000000
0.03  0.000000  0.000000  0.000000  -30.40998148000926  12.60332408323868  4.76541181982495  78.72322841330852  3.1342504317790767  -2.4402935104880226  20.101479247936812  24.429530855885478  3.6810028440064015  22.366641163464845  0.000000
0.045  0.000000  0.000000  0.000000  -28.887904045734867  5.1664936426170565  10.860311075802716  66.35038488824169  10.9832189856058  -9.908420309175987  22.98777323626058  15.187223685020742  5.83645279384295  24.21470047379877  0.000000
0.06  0.000000  0.000000  0.000000  -29.668834506485716  -6.017450910684724  25.910298418021867  57.268322701388634  11.54000512144561  -23.92114363520049  26.861134070980878  8.200383824797083  6.695520649992473  30.966196780333263  0.000000
0.075  0.000000  0.000000  0.000000  -34.97296077210685  -4.638668069075175  26.89012429098093  69.51755814057185  -7.426819335913946  -29.91087441992324  22.05612019611321  24.886906116108932  -2.637059145583748  21.812135095176565  0.000000
0.09  0.000000  0.000000  0.000000  -42.62010448671304  11.652382666344213  23.10155711615799  29.16903673273897  -24.254476149259215  -16.109897627859887  20.565733303643185  31.513609668131444  3.8229853239810856  13.022586014573116  0.000000
0.105  0.000000  0.000000  0.000000  -41.49961837341354  18.42219478531385  28.81555295092772  -13.678409150116934  -24.53009741805054  -12.534447826574679  18.23886482292658  26.766298494545477  9.625555428559244  15.83014536666733  0.000000
0.12  0.000000  0.000000  0.000000  -27.777393752261197  11.185219611873212  27.414687111627927  25.754146522691006  -22.94636682859185  -21.432574699109  12.208797111525744  28.56134120807302  -3.3395473574044527  10.189810876036265  0.000000
0.135  0.000000  0.000000  0.000000  -21.262821937372067  4.229469493389605  20.995741617403798  64.19757315996011  -14.457211524872198  -27.272978037972432  14.45106376408478  24.23906872113482  -2.1273201771719457  7.720113576272266  0.000000
0.15  0.000000  0.000000  0.000000  -25.925888502076763  1.1850718604018433  19.100014209138923  57.11707722015251  -2.7969730278770024  -23.805322499986108  18.18603593410222  20.62449315146584  4.736511218994527  14.857910789408072  0.000000
0.16499999999999998  0.000000  0.000000  0.000000  -28.939991343509444  1.2914684757890804  17.439893650996844  52.90687278743744  -2.236691006675519  -17.583039838383122  16.99726354157461  21.820638664666685  1.9684946913967114  18.891267651574548  0.000000
0.18  0.000000  0.000000  0.000000  -30.404497442772694  1.825085188177985  15.908938660282272  57.329547057045566  -4.628752874866795  -14.925878969164076  16.728626602122393  23.246041543034192  0.2993854330992154  20.214470414173096  0.000000
0.195  0.000000  0.000000  0.000000  -30.186152621765054  2.097072549339365  15.824401792469736  56.70650437279605  -5.763811651635199  -13.241531834213593  18.382958706211976  22.804620479142187  0.3752812347300971  22.111750190821674  0.000000
0.21  0.000000  0.000000  0.000000  -29.825257885128014  1.2635070044752594  15.625385098333709  56.73209279062963  -6.518673337604294  -12.68416572479843  20.099416294822984  22.93951872790121  -0.7138775078767556  23.2554356226612  0.000000
0.22499999999999998  0.000000  0.000000  0.000000  -30.105116228584873  0.117103586612084  15.263933989994655  58.08890240773954  -6.6813968236544365  -12.69215504808192  21.13961478667464  23.25420203587231  -1.2582965254696308  24.32792624040994  0.000000
0.24  0.000000  0.000000  0.000000  -30.54572173465892  -0.5516746839256892  15.134647910111868  58.48866906606454  -7.002938629428325  -12.444562226520274  21.53237114874897  23.355859510955888  -1.3484287567412547  25.13589118456835  0.000000
0.255  0.000000  0.000000  0.000000  -30.982858773353616  -0.926476777731506  14.864318814636416  59.09809849917608  -7.484516890329992  -12.180316763239162  21.451059935694367  23.7055679661176  -1.9972861259359656  25.392772809327937  0.000000
0.27  0.000000  0.000000  0.000000  -31.448098826684536  -1.1237249314829847  14.749163493763245  59.279629944497714  -7.703835078147356  -11.96273481965075  21.40322175928372  23.886514922951008  -2.377454574774404  25.501008536689394  0.000000
0.285  0.000000  0.000000  0.000000  -31.71511845150904  -1.1286854535243651  14.621621857930489  59.383565799189995  -7.924685250277715  -11.824802726781265  21.231124970250406  24.214239437844153  -3.01188119919778  25.42617825298961  0.000000
0.3  0.000000  0.000000  0.000000  -31.961280479693762  -1.0514319194344894  14.574812065220359  59.357406206790884  -7.94031764658982  -11.745329805501434  21.140625286164145  24.515349185046492  -3.578890934652124  25.247894711328676  0.000000
0.315  0.000000  0.000000  0.000000  -32.04869545143236  -0.9211078206150055  14.526596975377421  59.211793383019334  -7.880824926360227  -11.780249455437849  21.006720540829832  24.952985212752953  -4.223029813011248  25.03941368348697  0.000000
0.32999999999999996  0.000000  0.000000  0.000000  -32.109715290655735  -0.7906221278601823  14.567215596132062  59.06829205761064  -7.7084164881635315  -11.912585364735303  20.909907090757816  25.440384648520073  -4.858500073060023  24.79292473596479  0.000000
0.345  0.000000  0.000000  0.000000  -32.095202519676  -0.6622449224652498  14.639875211002316  58.83704698088118  -7.487437049676349  -12.11982458892741  20.8124945272177  26.051721038287056  -5.482669317297376  24.55956436297957  0.000000
0.36  0.000000  0.000000  0.000000  -32.0730768939995  -0.54825245369777  14.783689458709897  58.689944155814004  -7.225630173907141  -12.37709263353245  20.72590626497164  26.74091818870207  -6.129784514847903  24.32339793726381  0.000000
0.375  0.000000  0.000000  0.000000  -32.02834107402581  -0.4508988709226002  14.997125082384974  58.50108128215978  -6.962362186042898  -12.675444469809355  20.65223540254731  27.51964412723189  -6.729698209265522  24.121372536317512  0.000000
0.39  0.000000  0.000000  0.000000  -31.989718731547487  -0.3720274484744972  15.273769825880658  58.428025858030445  -6.70237984578085  -12.994081961470242  20.56930576011206  28.355056938620937  -7.361705964443955  23.923956393866987  0.000000
0.40499999999999997  0.000000  0.000000  0.000000  -31.970339367146135  -0.30563239636566575  15.583622118613507  58.34046936643554  -6.440542129369112  -13.288835263596193  20.504314985229858  29.236895032832916  -7.929223844877999  23.751607929498693  0.000000
0.42  0.000000  0.000000  0.000000  -31.96220286375169  -0.23905628522969563  15.862819712316977  58.36245598213917  -6.145445486468271  -13.531398432436982  20.426638993478264  30.132444271749204  -8.528715603947399  23.58426406212251  0.000000
0.435  0.000000  0.000000  0.000000  -31.973911406112318  -0.1688694855783382  16.100341485426952  58.36908609996107  -5.817318627617163  -13.697226054037788  20.368926642303702  31.034897471928076  -9.063555003044502  23.429079101539486  0.000000
0.44999999999999996  0.000000  0.000000  0.000000  -31.994377290036986  -0.0837627894727329  16.283630848212457  58.44798828671899  -5.454750184040548  -13.791789831338635  20.307069959883098  31.913290904540304  -9.614680411871369  23.274758368274362  0.000000
0.46499999999999997  0.000000  0.000000  0.000000  -32.02687743577913  0.014342704494614658  16.418276520018246  58.51869783260346  -5.0730192321172005  -13.814508242791977  20.263479952020628  32.78059121358218  -10.114648950504884  23.12971842210493  0.000000
0.48  0.000000  0.000000  0.000000  -32.0694141195648  0.1278004917818132  16.52091158758579  58.63128427576398  -4.675585941800806  -13.773880927254332  20.223475805702655  33.60588608823859  -10.612866764431935  22.98675721234673  0.000000
0.495  0.000000  0.000000  0.000000  -32.120700858166984  0.24967298600854906  16.602549350963802  58.750454666388926  -4.28624416803626  -13.689155777117445  20.1968010631342  34.418528767924585  -11.076352565011193  22.843854835745528  0.000000
0.51  0.000000  0.000000  0.000000  -32.18259203724712  0.3750140276198784  16.69987274594574  58.896856018247966  -3.9081201406964787  -13.579657715061554  20.17762389682204  35.19079869966121  -11.531858751974683  22.701404351797684  0.000000
0.525  0.000000  0.000000  0.000000  -32.25049084291372  0.49572705363745384  16.826730978319556  59.0520691572921  -3.5628456579457857  -13.479080267759123  20.167556964069476  35.957038325002294  -11.963519051125807  22.558655683197042  0.000000
0.54  0.000000  0.000000  0.000000  -32.32814617665454  0.6092078324255482  16.996211596708992  59.222902257016  -3.232091805076868  -13.396135354452166  20.166547907026676  36.69438558945719  -12.385887422395632  22.417062686450418  0.000000
0.5549999999999999  0.000000  0.000000  0.000000  -32.40631400566386  0.7115054590317293  17.179468404425403  59.38699514456486  -2.9044146156888053  -13.334033698337077  20.170697915359124  37.42851531209268  -12.789116598905432  22.274985942259015  0.000000
0.57  0.000000  0.000000  0.000000  -32.4863718726529  0.8069262963532028  17.374894468192622  59.55290386869035  -2.5629713567691566  -13.287795823439556  20.1775081162809  38.138223034610085  -13.185531714871177  22.128849319323702  0.000000
0.585  0.000000  0.000000  0.000000  -32.567154308382165  0.9002906419049054  17.572876357928525  59.704028207610655  -2.2187925502017047  -13.2515054548882  20.185455338156974  38.84187752007318  -13.56667852453654  21.97730579824605  0.000000
0.6  0.000000  0.000000  0.000000  -32.65433532184109  0.9960187000829782  17.77682190210711  59.85305770290086  -1.8620932433165591  -13.21915843256886  20.195514205598908  39.52068796455232  -13.943128167382303  21.81884740194521  0.000000
0.615  0.000000  0.000000  0.000000  -32.7453284763314  1.0941944784098085  17.981701767807415  59.98880862423467  -1.5022900503305006  -13.189622023085724  20.206866017524355  40.19032668292969  -14.307782474436092  21.6547453510157  0.000000
0.63  0.000000  0.000000  0.000000  -32.84437592786864  1.196457554981602  18.19267840261676  60.12167139679308  -1.1320313958948134  -13.159293243291035  20.22201496018336  40.83569788167486  -14.669062007265772  21.48346660346248  0.000000
0.645  0.000000  0.000000  0.000000  -32.94815345519248  1.3025407780724805  18.4046336587883  60.244580823945576  -0.7592940435963493  -13.128629739959013  20.240010145745853  41.47119465401785  -15.02243653551165  21.30685697056566  0.000000
0.6599999999999999  0.000000  0.000000  0.000000  -33.060274464126  1.4129478582023232  18.62281305769378  60.364410670573335  -0.3774972968687824  -13.094496033182121  20.263644532420393  42.083408323460304  -15.373041377938488  21.124522391680376  0.000000
0.6749999999999999  0.000000  0.000000  0.000000  -33.17789133694866  1.5277098727513534  18.84242670917214  60.47669862008666  0.005577114119113241  -13.05744367261087  20.2916768456586  42.685378071072606  -15.718370356184506  20.937800827594483  0.000000
0.69  0.000000  0.000000  0.000000  -33.30436530206587  1.6473337709480709  19.068530606101262  60.58686469166454  0.39502127680930715  -13.014507042214419  20.326823887462133  43.26528280630048  -16.06184530262067  20.746677571837086  0.000000
0.705  0.000000  0.000000  0.000000  -33.43733345575007  1.771611915213013  19.29714557060381  60.691482305075965  0.783484510341123  -12.965783784543477  20.36783483085809  43.834411453887334  -16.401565316627206  20.552317636706416  0.000000
